<mxfile host="app.diagrams.net" modified="2023-01-14T03:50:29.721Z" agent="5.0 (Windows NT 10.0; Win64; x64) AppleWebKit/537.36 (KHTML, like Gecko) Chrome/109.0.0.0 Safari/537.36" etag="XW7WHvShfRXNqBnaIrgL" version="20.8.5" type="github">
  <diagram name="Page-1" id="e7e014a7-5840-1c2e-5031-d8a46d1fe8dd">
    <mxGraphModel dx="2603" dy="756" grid="1" gridSize="10" guides="1" tooltips="1" connect="1" arrows="1" fold="1" page="1" pageScale="1" pageWidth="1169" pageHeight="826" background="none" math="0" shadow="0">
      <root>
        <mxCell id="0" />
        <mxCell id="1" parent="0" />
        <mxCell id="2" value="GameThread 1" style="swimlane;whiteSpace=wrap" parent="1" vertex="1">
          <mxGeometry x="-110" y="150" width="910" height="1080" as="geometry" />
        </mxCell>
        <mxCell id="wbHjeguqodvjs2tDxC9u-78" value="" style="rounded=1;whiteSpace=wrap;html=1;fontColor=#000000;direction=east;labelBackgroundColor=none;labelBorderColor=none;" vertex="1" parent="2">
          <mxGeometry x="40" y="350" width="810" height="520" as="geometry" />
        </mxCell>
        <mxCell id="wbHjeguqodvjs2tDxC9u-75" value="" style="rounded=1;whiteSpace=wrap;html=1;fontColor=#000000;" vertex="1" parent="2">
          <mxGeometry x="40" y="210" width="730" height="110" as="geometry" />
        </mxCell>
        <mxCell id="wbHjeguqodvjs2tDxC9u-59" value="" style="rounded=1;whiteSpace=wrap;html=1;fontColor=#000000;" vertex="1" parent="2">
          <mxGeometry x="40" y="90" width="530" height="100" as="geometry" />
        </mxCell>
        <mxCell id="5" value="" style="ellipse;shape=startState;fillColor=#000000;strokeColor=#ff0000;" parent="2" vertex="1">
          <mxGeometry x="235" y="40" width="30" height="30" as="geometry" />
        </mxCell>
        <mxCell id="6" value="" style="edgeStyle=elbowEdgeStyle;elbow=horizontal;verticalAlign=bottom;endArrow=open;endSize=8;strokeColor=#FF0000;endFill=1;rounded=0;entryX=0.488;entryY=0.013;entryDx=0;entryDy=0;entryPerimeter=0;" parent="2" source="5" target="wbHjeguqodvjs2tDxC9u-44" edge="1">
          <mxGeometry x="171" y="40" as="geometry">
            <mxPoint x="186.5" y="110" as="targetPoint" />
          </mxGeometry>
        </mxCell>
        <mxCell id="wbHjeguqodvjs2tDxC9u-52" value="" style="edgeStyle=orthogonalEdgeStyle;rounded=0;orthogonalLoop=1;jettySize=auto;html=1;fontColor=#000000;entryX=0.489;entryY=-0.022;entryDx=0;entryDy=0;entryPerimeter=0;verticalAlign=bottom;" edge="1" parent="2" source="8" target="10">
          <mxGeometry relative="1" as="geometry" />
        </mxCell>
        <mxCell id="8" value="ARailsGameState 注册记录" style="" parent="2" vertex="1">
          <mxGeometry x="118.5" y="234" width="270" height="50" as="geometry" />
        </mxCell>
        <mxCell id="wbHjeguqodvjs2tDxC9u-53" value="" style="edgeStyle=orthogonalEdgeStyle;rounded=0;orthogonalLoop=1;jettySize=auto;html=1;fontColor=#000000;" edge="1" parent="2" source="10" target="wbHjeguqodvjs2tDxC9u-45">
          <mxGeometry relative="1" as="geometry" />
        </mxCell>
        <mxCell id="10" value="初始化物理场景" style="" parent="2" vertex="1">
          <mxGeometry x="121" y="392" width="270" height="46" as="geometry" />
        </mxCell>
        <mxCell id="wbHjeguqodvjs2tDxC9u-50" style="edgeStyle=orthogonalEdgeStyle;rounded=0;orthogonalLoop=1;jettySize=auto;html=1;fontColor=#000000;verticalAlign=bottom;" edge="1" parent="2" source="wbHjeguqodvjs2tDxC9u-44">
          <mxGeometry relative="1" as="geometry">
            <mxPoint x="254" y="220" as="targetPoint" />
          </mxGeometry>
        </mxCell>
        <mxCell id="wbHjeguqodvjs2tDxC9u-44" value="载具启动" style="shape=cube;whiteSpace=wrap;html=1;boundedLbl=1;backgroundOutline=1;darkOpacity=0.05;darkOpacity2=0.1;" vertex="1" parent="2">
          <mxGeometry x="121" y="102" width="265" height="78" as="geometry" />
        </mxCell>
        <mxCell id="wbHjeguqodvjs2tDxC9u-107" value="" style="edgeStyle=none;rounded=0;orthogonalLoop=1;jettySize=auto;html=1;fontColor=#000000;entryX=0.5;entryY=0.043;entryDx=0;entryDy=0;entryPerimeter=0;" edge="1" parent="2" source="wbHjeguqodvjs2tDxC9u-45" target="wbHjeguqodvjs2tDxC9u-106">
          <mxGeometry relative="1" as="geometry" />
        </mxCell>
        <mxCell id="wbHjeguqodvjs2tDxC9u-45" value="UActorComponent::CreatePhysicsState&lt;br&gt;ARailsGameState::RegisterPrimitiveComponent(UPrimitiveComponent* pc)&lt;br&gt;更新物理体的形态、位置" style="html=1;fontColor=#000000;" vertex="1" parent="2">
          <mxGeometry x="43.5" y="517" width="425.5" height="78" as="geometry" />
        </mxCell>
        <mxCell id="wbHjeguqodvjs2tDxC9u-54" value="ARailsBaseActor" style="swimlane;fontStyle=1;align=center;verticalAlign=top;childLayout=stackLayout;horizontal=1;startSize=26;horizontalStack=0;resizeParent=1;resizeParentMax=0;resizeLast=0;collapsible=1;marginBottom=0;fontColor=#000000;" vertex="1" parent="2">
          <mxGeometry x="400" y="111" width="160" height="60" as="geometry" />
        </mxCell>
        <mxCell id="wbHjeguqodvjs2tDxC9u-56" value="" style="line;strokeWidth=1;fillColor=none;align=left;verticalAlign=middle;spacingTop=-1;spacingLeft=3;spacingRight=3;rotatable=0;labelPosition=right;points=[];portConstraint=eastwest;strokeColor=inherit;fontColor=#000000;" vertex="1" parent="wbHjeguqodvjs2tDxC9u-54">
          <mxGeometry y="26" width="160" height="8" as="geometry" />
        </mxCell>
        <mxCell id="wbHjeguqodvjs2tDxC9u-57" value="+ BeginPlay: void" style="text;strokeColor=none;fillColor=none;align=left;verticalAlign=top;spacingLeft=4;spacingRight=4;overflow=hidden;rotatable=0;points=[[0,0.5],[1,0.5]];portConstraint=eastwest;fontColor=#000000;" vertex="1" parent="wbHjeguqodvjs2tDxC9u-54">
          <mxGeometry y="34" width="160" height="26" as="geometry" />
        </mxCell>
        <mxCell id="wbHjeguqodvjs2tDxC9u-60" value="ARailsGameState" style="swimlane;fontStyle=1;align=center;verticalAlign=top;childLayout=stackLayout;horizontal=1;startSize=26;horizontalStack=0;resizeParent=1;resizeParentMax=0;resizeLast=0;collapsible=1;marginBottom=0;fontColor=#000000;" vertex="1" parent="2">
          <mxGeometry x="400" y="222" width="350" height="86" as="geometry" />
        </mxCell>
        <mxCell id="wbHjeguqodvjs2tDxC9u-61" value="+ RailsPhysicsStatesToAdd: TArray&lt;class ARailsBaseActor*&gt; " style="text;strokeColor=none;fillColor=none;align=left;verticalAlign=top;spacingLeft=4;spacingRight=4;overflow=hidden;rotatable=0;points=[[0,0.5],[1,0.5]];portConstraint=eastwest;fontColor=#000000;" vertex="1" parent="wbHjeguqodvjs2tDxC9u-60">
          <mxGeometry y="26" width="350" height="26" as="geometry" />
        </mxCell>
        <mxCell id="wbHjeguqodvjs2tDxC9u-62" value="" style="line;strokeWidth=1;fillColor=none;align=left;verticalAlign=middle;spacingTop=-1;spacingLeft=3;spacingRight=3;rotatable=0;labelPosition=right;points=[];portConstraint=eastwest;strokeColor=inherit;fontColor=#000000;" vertex="1" parent="wbHjeguqodvjs2tDxC9u-60">
          <mxGeometry y="52" width="350" height="8" as="geometry" />
        </mxCell>
        <mxCell id="wbHjeguqodvjs2tDxC9u-63" value="+ RegisterRailsActor(ARailsBaseActor* actor): void" style="text;strokeColor=none;fillColor=none;align=left;verticalAlign=top;spacingLeft=4;spacingRight=4;overflow=hidden;rotatable=0;points=[[0,0.5],[1,0.5]];portConstraint=eastwest;fontColor=#000000;" vertex="1" parent="wbHjeguqodvjs2tDxC9u-60">
          <mxGeometry y="60" width="350" height="26" as="geometry" />
        </mxCell>
        <mxCell id="wbHjeguqodvjs2tDxC9u-79" value="ARailsGameState" style="swimlane;fontStyle=1;align=center;verticalAlign=top;childLayout=stackLayout;horizontal=1;startSize=26;horizontalStack=0;resizeParent=1;resizeParentMax=0;resizeLast=0;collapsible=1;marginBottom=0;fontColor=#000000;" vertex="1" parent="2">
          <mxGeometry x="400" y="372" width="350" height="86" as="geometry" />
        </mxCell>
        <mxCell id="wbHjeguqodvjs2tDxC9u-81" value="" style="line;strokeWidth=1;fillColor=none;align=left;verticalAlign=middle;spacingTop=-1;spacingLeft=3;spacingRight=3;rotatable=0;labelPosition=right;points=[];portConstraint=eastwest;strokeColor=inherit;fontColor=#000000;" vertex="1" parent="wbHjeguqodvjs2tDxC9u-79">
          <mxGeometry y="26" width="350" height="8" as="geometry" />
        </mxCell>
        <mxCell id="wbHjeguqodvjs2tDxC9u-82" value="+ BeginPlay: void" style="text;strokeColor=none;fillColor=none;align=left;verticalAlign=top;spacingLeft=4;spacingRight=4;overflow=hidden;rotatable=0;points=[[0,0.5],[1,0.5]];portConstraint=eastwest;fontColor=#000000;" vertex="1" parent="wbHjeguqodvjs2tDxC9u-79">
          <mxGeometry y="34" width="350" height="26" as="geometry" />
        </mxCell>
        <mxCell id="wbHjeguqodvjs2tDxC9u-83" value="+ InitPhysScene: void" style="text;strokeColor=none;fillColor=none;align=left;verticalAlign=top;spacingLeft=4;spacingRight=4;overflow=hidden;rotatable=0;points=[[0,0.5],[1,0.5]];portConstraint=eastwest;fontColor=#000000;" vertex="1" parent="wbHjeguqodvjs2tDxC9u-79">
          <mxGeometry y="60" width="350" height="26" as="geometry" />
        </mxCell>
        <mxCell id="wbHjeguqodvjs2tDxC9u-92" value="ARailsGameState" style="swimlane;fontStyle=1;align=center;verticalAlign=top;childLayout=stackLayout;horizontal=1;startSize=26;horizontalStack=0;resizeParent=1;resizeParentMax=0;resizeLast=0;collapsible=1;marginBottom=0;fontColor=#000000;" vertex="1" parent="2">
          <mxGeometry x="480" y="510" width="350" height="86" as="geometry" />
        </mxCell>
        <mxCell id="wbHjeguqodvjs2tDxC9u-93" value="+ DlgHOnCreate: FDelegateHandle" style="text;strokeColor=none;fillColor=none;align=left;verticalAlign=top;spacingLeft=4;spacingRight=4;overflow=hidden;rotatable=0;points=[[0,0.5],[1,0.5]];portConstraint=eastwest;fontColor=#000000;" vertex="1" parent="wbHjeguqodvjs2tDxC9u-92">
          <mxGeometry y="26" width="350" height="26" as="geometry" />
        </mxCell>
        <mxCell id="wbHjeguqodvjs2tDxC9u-94" value="" style="line;strokeWidth=1;fillColor=none;align=left;verticalAlign=middle;spacingTop=-1;spacingLeft=3;spacingRight=3;rotatable=0;labelPosition=right;points=[];portConstraint=eastwest;strokeColor=inherit;fontColor=#000000;" vertex="1" parent="wbHjeguqodvjs2tDxC9u-92">
          <mxGeometry y="52" width="350" height="8" as="geometry" />
        </mxCell>
        <mxCell id="wbHjeguqodvjs2tDxC9u-95" value="+ BeginPlay: void" style="text;strokeColor=none;fillColor=none;align=left;verticalAlign=top;spacingLeft=4;spacingRight=4;overflow=hidden;rotatable=0;points=[[0,0.5],[1,0.5]];portConstraint=eastwest;fontColor=#000000;" vertex="1" parent="wbHjeguqodvjs2tDxC9u-92">
          <mxGeometry y="60" width="350" height="26" as="geometry" />
        </mxCell>
        <mxCell id="wbHjeguqodvjs2tDxC9u-96" value="通过&amp;nbsp;UActorComponent::GlobalCreatePhysicsDelegate&lt;br&gt;的生命周期执行" style="html=1;align=center;verticalAlign=top;rounded=1;absoluteArcSize=1;arcSize=10;dashed=1;fontColor=#000000;" vertex="1" parent="2">
          <mxGeometry x="480" y="608" width="350" height="40" as="geometry" />
        </mxCell>
        <mxCell id="wbHjeguqodvjs2tDxC9u-106" value="启动物理线程" style="" vertex="1" parent="2">
          <mxGeometry x="121" y="690" width="270" height="46" as="geometry" />
        </mxCell>
        <mxCell id="wbHjeguqodvjs2tDxC9u-114" value="" style="shape=flexArrow;endArrow=classic;html=1;rounded=0;fontColor=#000000;width=34;endSize=7.33;" edge="1" parent="2">
          <mxGeometry width="50" height="50" relative="1" as="geometry">
            <mxPoint x="440" y="715" as="sourcePoint" />
            <mxPoint x="1020" y="715" as="targetPoint" />
          </mxGeometry>
        </mxCell>
        <mxCell id="wbHjeguqodvjs2tDxC9u-115" value="启动物理线程" style="edgeLabel;html=1;align=center;verticalAlign=middle;resizable=0;points=[];fontColor=#000000;" vertex="1" connectable="0" parent="wbHjeguqodvjs2tDxC9u-114">
          <mxGeometry x="-0.2103" y="-4" relative="1" as="geometry">
            <mxPoint as="offset" />
          </mxGeometry>
        </mxCell>
        <mxCell id="3" value="PxThread 2" style="swimlane;whiteSpace=wrap" parent="1" vertex="1">
          <mxGeometry x="800" y="150" width="715.5" height="1020" as="geometry" />
        </mxCell>
        <mxCell id="13" value="" style="ellipse;shape=startState;fillColor=#000000;strokeColor=#ff0000;" parent="3" vertex="1">
          <mxGeometry x="350" y="581" width="30" height="30" as="geometry" />
        </mxCell>
        <mxCell id="14" value="" style="edgeStyle=elbowEdgeStyle;elbow=horizontal;verticalAlign=bottom;endArrow=open;endSize=8;strokeColor=#FF0000;endFill=1;rounded=0" parent="3" source="13" edge="1">
          <mxGeometry x="330" y="561" as="geometry">
            <mxPoint x="365" y="676" as="targetPoint" />
          </mxGeometry>
        </mxCell>
      </root>
    </mxGraphModel>
  </diagram>
</mxfile>
